<svg xmlns="http://www.w3.org/2000/svg" width="1000" height="1375" viewBox="0 0 1000 1375" version="1.1"><path d="M 400.980 225.524 C 399.484 227.327, 399.125 226.929, 406 231.087 C 420.749 240.008, 428.388 246.918, 435.496 257.770 C 440.294 265.096, 437.290 263.748, 429.080 254.892 C 411.568 236.001, 392.023 228.079, 373.451 232.345 C 365.738 234.116, 353.750 238.913, 350.867 241.382 C 348.724 243.216, 348.420 245, 350.250 245.001 C 358.420 245.007, 372.938 246.259, 378.500 247.436 C 382.510 248.285, 389.558 251, 395 253.791 C 402.459 257.617, 405.321 259.720, 408.320 263.582 C 412.454 268.903, 413.396 270.763, 419.621 285.886 C 422.278 292.340, 424.539 294.738, 431.081 298.041 C 439.258 302.168, 440.540 304.474, 440.329 314.661 C 440.235 319.191, 439.560 324.142, 438.829 325.662 C 436.907 329.659, 431.439 333, 426.819 333 C 418.962 333, 403.528 322.518, 396.054 312.108 C 393.840 309.024, 390.683 304.606, 389.038 302.292 C 384.470 295.864, 373.572 287.439, 365.086 283.775 C 357.866 280.658, 356.934 280.505, 345.768 280.612 C 339.316 280.674, 333.466 281.186, 332.768 281.749 C 332.071 282.313, 329.475 283.092, 327 283.481 C 324.525 283.869, 319.270 285.909, 315.322 288.014 C 307.372 292.251, 291.303 305.295, 287.878 310.291 C 286.668 312.056, 284.669 314.625, 283.435 316 C 280.896 318.829, 276.838 325.562, 274.093 331.500 C 265.394 350.317, 264.218 353.618, 265.687 355.087 C 266.471 355.871, 268.325 354.232, 272.326 349.218 C 284.072 334.497, 293.094 328.998, 316.277 322.433 C 321.903 320.840, 327.650 321.140, 326.520 322.968 C 326.211 323.468, 323.443 325.316, 320.368 327.075 C 300.422 338.488, 284.640 358.520, 281.431 376.500 C 280.645 380.900, 280.002 389.180, 280.001 394.900 C 280 403.953, 279.677 405.962, 277.508 410.400 C 273.202 419.211, 269.537 437.832, 269.517 451 C 269.502 460.900, 269.947 464.120, 272.714 474.142 C 274.482 480.545, 277.070 488.281, 278.466 491.333 C 279.862 494.385, 281.400 497.923, 281.884 499.195 C 284.532 506.160, 304.526 528.836, 318 540.156 C 330.471 550.633, 353.427 564.739, 366.500 569.958 C 367.600 570.397, 375.475 574.159, 384 578.317 C 429.606 600.562, 466.759 616.948, 483.007 621.985 C 492.078 624.797, 509.072 630.266, 520.772 634.139 L 542.043 641.181 600.772 640.089 C 633.072 639.489, 663.550 638.968, 668.500 638.931 C 676.043 638.875, 677.095 638.681, 675 637.732 C 673.625 637.108, 668.450 633.600, 663.500 629.935 C 637.003 610.318, 607.051 592.657, 569 574.213 C 536.829 558.619, 533.424 557, 532.793 557 C 532.491 557, 530.562 556.297, 528.506 555.438 L 524.768 553.876 526.884 551.624 C 528.387 550.023, 529 548.077, 529 544.901 C 529 540.850, 526.266 530.820, 524.111 526.967 C 523.640 526.124, 522.928 523.874, 522.530 521.967 C 521.283 515.995, 513.203 501.952, 504.275 490.238 C 499.554 484.043, 495.978 478.689, 496.328 478.339 C 497.346 477.320, 504.954 482.941, 512.097 489.990 C 517.584 495.405, 519.621 498.435, 524.200 508 C 530.457 521.069, 531.602 524.006, 532.456 529.179 C 533.173 533.518, 536.166 537.633, 537.849 536.593 C 538.708 536.063, 538.845 532.164, 538.363 522.053 L 537.703 508.239 546.679 499.644 C 552.018 494.532, 556.796 488.911, 558.469 485.774 C 560.017 482.873, 562.278 479.150, 563.494 477.500 C 565.251 475.115, 565.816 472.654, 566.247 465.500 C 566.546 460.550, 567.058 455.825, 567.385 455 C 567.712 454.175, 567.572 452.861, 567.075 452.079 C 566.157 450.636, 565.725 450.827, 559.387 455.478 C 558.440 456.172, 557.608 455.882, 556.517 454.478 C 555.015 452.545, 554.914 452.577, 552.062 455.876 C 549.620 458.701, 548.699 459.141, 546.420 458.569 C 541.918 457.439, 524.620 442.724, 522.241 438 C 521.548 436.625, 519.861 433.971, 518.491 432.102 C 515.866 428.521, 515.305 423.959, 516.955 419.617 C 520.865 409.333, 551.543 390.141, 562.384 391.197 L 565.500 391.500 565.500 403 C 565.500 416.588, 566.358 417.394, 572.063 409.167 C 576.117 403.319, 577.232 402.749, 578.028 406.117 C 578.318 407.346, 578.993 408.491, 579.528 408.662 C 580.396 408.939, 588.019 397.972, 590.898 392.302 C 591.512 391.094, 593.410 389.294, 595.115 388.302 C 602.072 384.259, 605.275 368.033, 601.376 356.589 C 599.865 352.155, 599.872 351.376, 601.479 345.438 C 603.875 336.587, 603.334 323.277, 600.419 319.323 C 597.447 315.293, 588.943 310.450, 579.575 307.453 C 575.134 306.032, 569.700 304.058, 567.500 303.067 C 565.300 302.076, 558.335 299.573, 552.022 297.506 C 538.427 293.054, 537.101 292.267, 532.406 285.872 C 528.357 280.357, 523.295 277.150, 514.500 274.529 C 511.200 273.546, 507.313 272.129, 505.862 271.381 C 502.551 269.672, 492.824 267.646, 478 265.577 C 462.222 263.375, 462.441 263.450, 459.938 259.400 C 453.596 249.139, 438.246 234.688, 429.074 230.345 C 417.357 224.796, 403.550 222.427, 400.980 225.524 M 340 253.449 C 338.625 254.145, 334.574 256.121, 330.998 257.838 C 322.649 261.848, 309.596 272.175, 303.649 279.477 C 301.092 282.615, 299 285.592, 299 286.092 C 299 287.981, 302.521 286.889, 305.452 284.091 C 309.655 280.079, 327.023 271.008, 330.583 270.965 C 332.187 270.945, 334.625 270.286, 336 269.500 C 339.603 267.440, 363.709 267.466, 366.441 269.532 C 367.509 270.339, 370.330 271, 372.711 271 C 375.092 271, 379.808 272.125, 383.192 273.500 C 386.576 274.875, 389.897 276, 390.571 276 C 391.245 276, 394.363 277.350, 397.500 279 C 404.226 282.538, 405 282.643, 405 280.015 C 405 276.662, 399.387 268.696, 394.290 264.814 C 388.432 260.353, 377.435 255.015, 374 254.965 C 372.625 254.945, 370.375 254.286, 369 253.500 C 365.730 251.631, 343.666 251.592, 340 253.449 M 467.592 279.250 C 467.347 280.488, 466.645 284.845, 466.034 288.932 C 465.422 293.020, 464.311 297.745, 463.565 299.432 C 462.820 301.120, 460.607 306.550, 458.648 311.500 C 456.690 316.450, 454.178 322.369, 453.067 324.653 C 449.449 332.092, 446.891 343.518, 446.691 353.143 C 446.578 358.546, 446.911 362.442, 447.504 362.650 C 448.056 362.844, 450.632 358.615, 453.228 353.251 C 457.887 343.624, 466.127 332.794, 467.641 334.308 C 468.481 335.147, 465.330 348.778, 463.874 350.607 C 463.044 351.650, 462.294 354.629, 459.872 366.500 C 458.555 372.957, 458.507 401.399, 459.798 410.683 C 461.077 419.888, 467.979 437.624, 473.573 446.078 C 478.964 454.226, 485.186 459.892, 496.550 467 C 504.746 472.126, 519.852 485.680, 524.864 492.403 C 527.600 496.073, 528.526 495.278, 526.644 490.874 C 525.851 489.018, 524.419 485.601, 523.463 483.281 C 521.223 477.846, 507.556 464.888, 495 456.294 C 482.643 447.837, 471.830 432.892, 468.963 420.310 C 468.360 417.664, 467.360 414.600, 466.741 413.500 C 466.121 412.400, 465.425 406.065, 465.192 399.423 C 464.851 389.658, 465.079 386.747, 466.385 384.222 C 467.273 382.505, 468.007 378.939, 468.015 376.300 C 468.024 373.660, 468.474 370.825, 469.015 370 C 471.051 366.899, 471.969 371.483, 471.985 384.816 C 471.994 393.156, 472.443 398.948, 473.185 400.316 C 473.837 401.517, 474.626 404.038, 474.939 405.918 C 475.832 411.286, 477.632 410.672, 481.092 403.817 C 482.846 400.343, 485.429 395.994, 486.832 394.154 C 489.209 391.037, 489.436 390.946, 490.133 392.831 C 490.545 393.943, 489.921 402.694, 488.747 412.275 C 486.655 429.349, 486.649 429.794, 488.461 434.598 C 490.331 439.557, 497.019 446.828, 505.500 453.121 C 507.700 454.754, 513.864 460.407, 519.198 465.683 C 529.304 475.680, 533.709 482.646, 534.755 490.288 C 535.090 492.738, 536.005 494.467, 537.343 495.184 C 539.153 496.152, 539.893 495.739, 543.231 491.896 C 545.331 489.478, 547.330 486.375, 547.674 485 C 548.017 483.625, 548.906 481.612, 549.649 480.527 C 550.392 479.443, 551 477.703, 551 476.662 C 551 474.005, 544.592 468.377, 537.500 464.805 C 534.200 463.143, 530.600 461, 529.500 460.044 C 528.400 459.087, 523.607 456.262, 518.850 453.765 C 507.800 447.967, 495.512 438.892, 493.536 435.069 C 491.638 431.399, 491.614 428.038, 493.438 421.187 C 495.191 414.601, 496.759 412.166, 504.424 404.129 C 514.803 393.247, 526.578 386.199, 546.500 378.942 C 555.416 375.695, 555.691 375.661, 575.885 375.364 C 587.097 375.199, 596.488 374.845, 596.755 374.578 C 597.022 374.312, 596.948 372.535, 596.590 370.629 C 596.015 367.563, 595.505 367.092, 592.151 366.526 C 589.725 366.116, 586.768 366.452, 583.931 367.461 C 578.570 369.367, 557.174 370.595, 555.029 369.120 C 552.786 367.578, 554.325 366.759, 563.797 364.455 C 572.979 362.221, 574.814 360.712, 569 360.179 C 567.075 360.002, 565.083 359.450, 564.574 358.952 C 563.170 357.581, 566.624 354.325, 570.253 353.599 C 573.704 352.909, 578 349.426, 578 347.317 C 578 346.583, 575.626 343.399, 572.724 340.241 C 566.230 333.176, 564.028 328.544, 566.151 326.420 C 567.416 325.155, 568.663 325.544, 575.973 329.486 C 580.579 331.969, 585.079 334, 585.973 334 C 588.403 334, 590 331.944, 590 328.817 C 590 326.485, 589.197 325.627, 585.047 323.524 C 579.382 320.653, 556.876 313, 554.099 313 C 553.081 313, 549.705 311.875, 546.596 310.500 C 543.487 309.125, 540.266 308, 539.438 308 C 536.808 308, 528.274 303.164, 526.159 300.475 C 525.038 299.050, 523.375 295.931, 522.464 293.544 C 520.991 289.689, 520.192 288.968, 515.314 287.102 C 512.293 285.946, 508.817 285, 507.589 285 C 505.104 285, 496.548 282.451, 493.588 280.829 C 492.537 280.252, 489.036 279.542, 485.810 279.249 C 482.583 278.956, 479.704 278.331, 479.413 277.859 C 479.121 277.386, 476.442 277, 473.460 277 C 468.636 277, 467.989 277.248, 467.592 279.250 M 396.503 289.407 C 392.632 294.482, 392.301 298.696, 395.310 304.580 C 396.695 307.286, 399.677 311.289, 401.937 313.476 C 405.537 316.958, 406.291 317.299, 408.013 316.224 C 409.709 315.165, 410.606 315.476, 414.566 318.499 C 421.555 323.833, 423.675 324.022, 427.668 319.665 C 431.475 315.511, 432.100 310.608, 429.356 306.421 C 425.589 300.671, 405.146 286.064, 400.801 286.018 C 399.866 286.008, 397.932 287.533, 396.503 289.407 M 499 299.965 C 499 300.496, 500.385 302.508, 502.077 304.435 C 503.770 306.363, 504.868 308.404, 504.518 308.970 C 504.150 309.566, 499.661 310, 493.875 310 C 482.897 310, 480 310.907, 480 314.344 C 480 317.467, 481.591 319.243, 488 323.272 C 497.040 328.955, 505.044 332.504, 513.288 334.483 C 520.360 336.182, 521.219 336.209, 522.643 334.786 C 524.067 333.362, 523.650 332.837, 518.105 329.072 L 512 324.925 512 317.431 C 512 308.875, 510.442 304.279, 506.486 301.168 C 503.683 298.963, 499 298.210, 499 299.965 M 388.962 346.359 C 382.671 348.056, 371.256 354.450, 366.683 358.838 C 361.940 363.389, 356.834 371.770, 354.400 379 C 352.952 383.301, 352.556 387.443, 352.581 398 C 352.611 410.044, 352.905 412.327, 355.307 419.168 C 356.788 423.385, 358 427.345, 358 427.966 C 358 428.588, 358.900 430.959, 360 433.236 C 361.100 435.513, 362 437.860, 362 438.451 C 362 441.420, 382.068 467.509, 386.651 470.499 C 388.218 471.521, 392.482 474.864, 396.127 477.929 C 399.772 480.993, 408.300 487.775, 415.077 493 C 421.855 498.225, 431.585 506.461, 436.700 511.301 C 441.816 516.142, 447.688 520.799, 449.750 521.651 C 451.813 522.503, 458.489 525.405, 464.588 528.100 C 474.953 532.681, 479 533.879, 479 532.368 C 479 530.524, 473.273 522.979, 462.046 510.034 C 447.044 492.736, 445.402 491, 444.045 491 C 442.624 491, 442.686 491.300, 445.148 496.367 C 447.284 500.765, 447.102 504.534, 444.791 503.764 C 444.126 503.542, 439.840 498.442, 435.267 492.430 C 426.435 480.821, 416.723 463.136, 415.537 456.500 C 415.143 454.300, 414.390 451.978, 413.863 451.340 C 412.664 449.889, 413.358 419.767, 414.780 411.500 C 415.348 408.200, 416.568 403.475, 417.492 401 C 418.650 397.897, 419.335 391.998, 419.701 382 C 420.180 368.881, 420.029 366.976, 418.116 362 C 415.526 355.264, 415.520 355, 417.949 355 C 420.305 355, 424.063 359.726, 427.094 366.501 C 429.114 371.017, 429.402 373.768, 430.076 395 C 431.205 430.597, 431.994 435.287, 439.307 449.851 C 444.919 461.028, 451.685 468.984, 464.633 479.632 C 470.564 484.509, 477.623 490.521, 480.319 492.990 C 486.896 499.015, 497.582 513.434, 499.596 519 C 500.491 521.475, 501.825 524.850, 502.560 526.500 C 503.294 528.150, 504.121 532.174, 504.395 535.441 C 505.011 542.765, 506.954 545.533, 514.076 549.233 C 521.275 552.972, 523.612 552.655, 523.162 548 C 522.564 541.818, 513.729 518.404, 508.864 510.112 C 505.207 503.878, 492.410 486.673, 486.143 479.565 C 467.121 457.989, 459.623 448.184, 455.890 440 C 453.370 434.475, 450 421.730, 450 417.724 C 450 416.099, 449.363 412.683, 448.584 410.134 C 444.273 396.026, 442.814 390.639, 441.084 382.440 C 440.032 377.457, 438.232 371.832, 437.083 369.940 C 435.933 368.048, 434.432 365.362, 433.747 363.972 C 429.660 355.685, 421.317 348.098, 413.976 345.993 C 409.267 344.643, 394.525 344.858, 388.962 346.359 M 400.158 361.750 C 400.380 370.273, 399.092 379.127, 397.067 383 C 395.332 386.319, 389.902 392, 388.464 392 C 386.099 392, 382.100 379.594, 381.294 369.750 C 380.978 365.901, 380.387 364, 379.506 364 C 377.618 364, 373.490 371.498, 370.540 380.286 C 368.268 387.055, 368 389.439, 368 402.905 C 368 420.267, 369.197 425.390, 376.781 440.500 C 382.264 451.422, 382.285 451.453, 390.142 460.354 C 401.059 472.723, 417.924 488, 420.661 488 C 423.068 488, 422.069 484.460, 418.750 481.226 C 415.005 477.578, 410.398 468.994, 405.971 457.418 C 402.992 449.626, 402.896 448.890, 403.307 436.918 C 403.735 424.432, 405.150 415.636, 407.475 411 C 408.165 409.625, 409.010 405.667, 409.354 402.204 C 409.698 398.741, 410.516 394.916, 411.173 393.704 C 411.926 392.314, 412.391 386.328, 412.433 377.500 C 412.488 365.982, 412.191 362.935, 410.756 360.311 C 408.640 356.442, 405.350 354, 402.256 354 C 400.037 354, 399.963 354.272, 400.158 361.750 M 525.217 376.104 C 511.273 380.225, 493 398.211, 493 407.816 C 493 411.701, 495.399 410.035, 500 402.956 C 503.018 398.312, 506.640 394.419, 511 391.133 C 517.259 386.415, 530.356 379.556, 534.500 378.825 C 535.600 378.631, 536.500 377.804, 536.500 376.986 C 536.500 375.168, 530.083 374.666, 525.217 376.104 M 828.447 524 C 828.447 541.875, 828.582 549.188, 828.748 540.250 C 828.914 531.313, 828.914 516.688, 828.748 507.750 C 828.582 498.813, 828.447 506.125, 828.447 524 M 829.420 642.500 C 829.419 653.500, 829.565 658.136, 829.745 652.803 C 829.924 647.470, 829.925 638.470, 829.746 632.803 C 829.568 627.136, 829.421 631.500, 829.420 642.500 M 627.640 704.773 C 627.377 705.198, 630.104 707.870, 633.700 710.711 C 643.657 718.576, 663.118 738.010, 670.485 747.444 C 678.373 757.546, 689.932 777.896, 693.586 788.114 C 695.039 792.176, 697.038 797.305, 698.030 799.511 C 701.752 807.794, 703.104 819.399, 703.680 848 C 704.141 870.880, 703.963 876.904, 702.617 883.860 C 701.728 888.459, 701 894.096, 701 896.388 C 701 898.680, 700.398 901.443, 699.663 902.527 C 698.927 903.612, 695.959 911.475, 693.066 920 C 681.756 953.330, 660.853 983.615, 631.979 1008.508 C 622.498 1016.681, 605.018 1029.695, 595.500 1035.666 C 585.228 1042.110, 560.285 1054.012, 553.595 1055.661 L 546.689 1057.364 547.331 1082.335 C 547.684 1096.069, 548.139 1107.472, 548.341 1107.674 C 548.544 1107.877, 551.362 1106.729, 554.605 1105.123 C 557.847 1103.517, 562.525 1101.665, 565 1101.007 C 584.513 1095.822, 622.562 1078.248, 642.500 1065.213 C 648 1061.618, 654.750 1057.201, 657.500 1055.398 C 660.250 1053.596, 664.809 1050.182, 667.632 1047.811 C 670.454 1045.440, 677.708 1039.365, 683.751 1034.310 C 696.676 1023.501, 715.544 1002.790, 725.941 988 C 733.635 977.053, 744.600 957.626, 748.112 948.716 C 749.235 945.866, 751.245 941.151, 752.577 938.238 C 753.910 935.324, 755 932.688, 755 932.378 C 755 932.069, 755.927 930.637, 757.060 929.196 C 759.115 926.585, 759.118 926.353, 758.458 845.039 C 757.831 767.837, 757.695 763.284, 755.898 759.434 C 754.854 757.198, 754 755.016, 754 754.586 C 754 752.944, 743.838 728.691, 742.089 726.159 C 741.079 724.697, 738.508 719.113, 736.376 713.751 L 732.500 704.001 680.309 704.001 C 651.604 704, 627.903 704.348, 627.640 704.773 M 334.500 719.640 C 329 720.982, 322.475 722.519, 320 723.054 C 305.608 726.170, 279.024 736.730, 267.500 743.909 C 264.200 745.964, 259.087 749.089, 256.137 750.852 C 234.323 763.892, 202.764 795.843, 192.283 815.500 C 187.056 825.304, 179.357 842.016, 178.693 845 C 175.786 858.062, 173.059 868.994, 172.128 871.315 C 170.715 874.840, 170.665 918.563, 172.067 925 C 172.606 927.475, 173.670 933.608, 174.432 938.629 C 176.229 950.464, 183.376 971.749, 190.475 986.406 C 197.330 1000.557, 211.861 1021.765, 221.931 1032.316 C 230.112 1040.887, 245.367 1054.377, 254.035 1060.705 C 263.682 1067.748, 289.769 1082.854, 301.341 1088.099 C 320.094 1096.599, 364.768 1111, 372.382 1111 C 373.768 1111, 377.494 1111.675, 380.661 1112.500 C 383.829 1113.325, 388.463 1114.005, 390.960 1114.012 C 393.457 1114.018, 397.836 1114.646, 400.692 1115.406 C 404.841 1116.511, 412.971 1116.680, 441.192 1116.248 L 476.500 1115.709 476.183 1094.604 C 476.009 1082.997, 475.488 1073.114, 475.025 1072.642 C 474.558 1072.165, 472.699 1072.260, 470.842 1072.854 C 462.726 1075.454, 457.659 1075.381, 412 1072.009 C 405.675 1071.542, 398.925 1070.661, 397 1070.050 C 395.075 1069.440, 390.125 1068.508, 386 1067.979 C 373.746 1066.409, 358.654 1062.976, 348 1059.334 C 345.525 1058.488, 341.475 1057.216, 339 1056.509 C 330.783 1054.160, 308.360 1045.082, 301.500 1041.326 C 284.640 1032.097, 279.455 1029.049, 270.904 1023.338 C 259.774 1015.904, 242.309 1000.584, 233.946 990.919 C 225.451 981.100, 214.395 964.034, 210.887 955.324 C 206.331 944.014, 205.251 940.211, 201.850 923.500 C 197.325 901.269, 197.764 885.681, 203.637 860.073 C 208.376 839.408, 227.580 810.523, 247.500 794.096 C 275.470 771.031, 308.045 756.109, 339.500 751.953 C 364.447 748.658, 374.197 747.808, 381 748.338 C 412.674 750.804, 417.515 751.589, 434.687 757.037 C 438.090 758.117, 441.465 759.015, 442.187 759.034 C 442.909 759.053, 445.300 759.937, 447.500 761 C 449.700 762.063, 451.950 762.956, 452.500 762.985 C 453.050 763.014, 457.438 764.992, 462.250 767.381 L 471 771.723 471 752.487 C 471 733.108, 470.458 726.599, 468.922 727.548 C 468.463 727.832, 466.381 727.347, 464.294 726.472 C 460.767 724.992, 454.341 723.559, 439.500 720.942 C 436.200 720.360, 430.225 719.235, 426.222 718.442 C 420.605 717.329, 410.443 717.023, 381.722 717.100 C 345.839 717.196, 344.140 717.288, 334.500 719.640 M 547.099 774.813 C 546.991 779.500, 545.087 793.343, 541.845 813 C 537.824 837.385, 531.209 855.509, 520.675 871 C 515.854 878.089, 506.040 887.943, 499.644 892.116 C 493.242 896.293, 480.226 901.674, 474.881 902.354 C 473.021 902.591, 469.511 903.515, 467.079 904.408 C 464.648 905.301, 458.277 906.925, 452.922 908.016 C 428.692 912.954, 412.359 909.148, 395.908 894.732 C 386.369 886.373, 383.822 882.192, 381.893 871.724 C 380.827 865.935, 380.937 864.205, 382.924 855.608 C 384.148 850.312, 386.259 843.246, 387.616 839.907 C 391.681 829.904, 389.890 828.351, 375.334 829.259 C 368.570 829.681, 365.637 830.404, 360.688 832.869 C 352.114 837.141, 339.359 847.508, 334.098 854.482 C 327.396 863.366, 325.044 871.153, 325.033 884.500 C 325.017 903.766, 329.371 914.304, 343.292 928.695 C 351.690 937.375, 353.047 938.340, 365.370 944.388 C 377.551 950.366, 395.997 956.986, 400.547 957.011 C 401.621 957.017, 404.709 957.692, 407.409 958.511 C 411.287 959.687, 418.603 960, 442.239 960 L 472.160 960 480.330 957.107 C 498.503 950.674, 514.754 941.474, 534.648 926.358 C 541.329 921.282, 547.040 917.373, 547.339 917.672 C 547.638 917.971, 548.541 916.705, 549.346 914.858 C 550.151 913.011, 552.878 908.800, 555.406 905.500 C 564.109 894.139, 573.005 865.718, 572.996 849.308 C 572.991 840.504, 569.670 821.394, 565.729 807.500 C 564.126 801.846, 558.411 790.901, 553.250 783.598 C 551.344 780.902, 549.203 776.852, 548.491 774.598 L 547.198 770.500 547.099 774.813" stroke="none" fill="#040404" fill-rule="evenodd"/><path d="M 760.750 261.742 L 754 262.091 754.008 302.296 C 754.024 379.802, 756.603 612.017, 757.626 628.108 L 758.237 637.716 707.369 638.295 C 679.391 638.614, 630.771 639.393, 599.324 640.026 L 542.148 641.178 519.324 633.665 C 506.771 629.533, 491.100 624.484, 484.500 622.446 C 477.900 620.407, 471.864 618.496, 471.086 618.200 C 470.271 617.889, 469.943 618.099, 470.312 618.695 C 470.788 619.465, 471.108 705.222, 470.722 728.500 C 470.533 739.916, 473.172 901.470, 473.558 902.094 C 474.299 903.292, 483.550 900.302, 492.774 895.883 C 511.904 886.719, 528.683 864.235, 536.345 837.500 C 538.237 830.900, 540.713 819.875, 541.849 813 C 546.997 781.833, 547.171 779.471, 547.052 742.549 C 546.952 711.508, 547.131 707.012, 548.524 705.619 C 549.947 704.196, 559.608 704.008, 641.805 703.797 C 692.237 703.668, 738.526 703.548, 744.668 703.531 C 750.811 703.514, 756.055 703.725, 756.322 704 C 757.053 704.753, 758.990 894.120, 759.134 979 C 759.204 1019.975, 759.540 1066.775, 759.881 1083 L 760.500 1112.500 795.701 1112.500 C 819.602 1112.500, 831.249 1112.153, 831.982 1111.419 C 832.756 1110.644, 832.634 1054.459, 831.553 913.419 C 829.206 607.281, 828.096 478.169, 826.838 365.250 L 825.677 261 796.589 261.196 C 780.590 261.304, 764.462 261.549, 760.750 261.742 M 535.116 926.015 C 515.883 940.847, 498.076 950.779, 477.500 958.152 L 473.500 959.585 473.500 977.543 C 473.500 1001.940, 475.958 1108.667, 476.617 1112.900 L 477.147 1116.300 508.823 1115.489 C 537.523 1114.756, 544.438 1114.507, 546.760 1114.125 C 547.791 1113.955, 548.345 918.325, 547.315 917.717 C 546.867 917.452, 541.377 921.186, 535.116 926.015" stroke="none" fill="#fb0413" fill-rule="evenodd"/></svg>